<svg xmlns="http://www.w3.org/2000/svg" width="331" height="208.5" viewBox="0 0 331 208.5"><title>Logo - Siong Esteban</title><desc>Made with Adobe Illustrator</desc><g xmlns="http://www.w3.org/2000/svg" fill="#000-" fill-rule="evenodd"><path d="M165.5 208.5H1.9c-1.6 0-1.9-.5-1.9-1.9V2C0 .4.4 0 2 0h327.1c1.6 0 1.9.5 1.9 1.9v204.6c0 1.6-.4 2-2 2zM180.7 16H81a3.26 3.26 0 0 0-2.3 1Q47.95 47.75 17.1 78.5a3.25 3.25 0 0 0-1.1 2.8v47a3.54 3.54 0 0 0 1 2.6q30.3 30.15 60.5 60.4a4 4 0 0 0 2.9 1.2h45.7a4 4 0 0 0 3.1-1.3l59.2-59.2 33-33a7.8 7.8 0 0 1 6.9-2.6 8 8 0 0 1 6.9 9 7.3 7.3 0 0 1-2.5 4.8l-79.6 79.6-2.5 2.5a1.7 1.7 0 0 0 .7.1h98.5a3.19 3.19 0 0 0 2.6-1q30.75-30.9 61.7-61.7a2.9 2.9 0 0 0 1-2.3V79.9a3.1 3.1 0 0 0-1-2.4c-20.2-20.2-40.4-40.3-60.6-60.6a3.19 3.19 0 0 0-2.6-1c-14.2 0-28.5.2-42.7-.1a10.51 10.51 0 0 0-8.5 3.5q-44.85 45-89.8 89.8c-3.6 3.6-8.4 3.8-11.7.5s-3.1-8.2.4-11.7q34.8-34.8 69.7-69.6c4-3.9 8-7.9 12.4-12.3zM16 56.5C29.5 43 43 29.4 56.4 16H17.1c-.9 0-1.2.3-1.2 1.2.1 13.2.1 26.4.1 39.3zM315.1 152c-13.5 13.6-27.1 27.1-40.5 40.5h39.1c1.5 0 1.4-.6 1.4-1.7zM275.6 15.9c13.2 13.2 26.4 26.5 39.5 39.6V17.4c0-1.3-.5-1.4-1.5-1.4h-37.3a1.7 1.7 0 0 1-.7-.1zM16 152.6v38.6c0 1.4.6 1.4 1.6 1.4h36.9c.4 0 .9.2 1.2-.1C42.5 179.2 29.4 166 16 152.6z"/><path d="M20.3 103.1c-.5-7.6 3.9-14.1 10.1-19.9 7.5-7 14.6-14.4 21.8-21.7 8.1-8.1 16.3-16.2 24.4-24.3 3.3-3.3 6.7-6.6 9.9-10A22.42 22.42 0 0 1 119.1 58l-.4.4c-13.4 13.3-26.7 26.7-40 40-1.6 1.6-3.1 3.2-4.8 4.7-.7.6-.8 1-.1 1.8 6 6 12.1 12 18.1 18 3.5 3.5 7.1 7 10.6 10.6.7.7 1 1 1.9.1 7.3-7.4 14.7-14.7 22-22L148 90c7.1-7.1 14.2-14.2 21.3-21.2l18.6-18.6c7.2-7.2 14.5-14.2 21.5-21.5 7.4-7.7 24.1-12.2 34.6-2 5.3 5.1 10.4 10.4 15.6 15.7 7.1 7.1 14.2 14.2 21.2 21.3 7.3 7.3 14.5 14.7 21.9 21.9 3.4 3.3 6.4 6.8 7.5 11.4 2.4 9.8-.4 18.3-7.2 25.5-8.1 8.3-16.4 16.4-24.6 24.7l-24.5 24.5c-3.3 3.3-6.5 6.6-9.8 9.9-6.5 6.6-14.4 8.8-23.2 6.1s-14.1-9.2-15.4-18.4a21 21 0 0 1 6-18.4c9.9-10.1 20-20 29.9-30 5.2-5.2 10.4-10.5 15.6-15.7.8-.8.6-1.2-.1-1.9-9.5-9.4-18.9-18.9-28.3-28.4-.7-.7-1.1-1-2-.1-5.1 5.2-10.3 10.3-15.4 15.4L192.4 109c-8.1 8.1-16.3 16.2-24.4 24.3L140.3 161c-6.1 6.1-12.1 12.2-18.3 18.3-7.5 7.4-18.1 11-27.8 7.1-4.5-1.8-7.6-5.1-10.9-8.4-8.2-8.2-16.4-16.4-24.7-24.6-8.1-8.1-16.2-16.1-24.3-24.2-2.3-2.3-4.5-4.6-6.9-6.8-4.9-5.2-7.3-10.8-7.1-19.3zm207-50.4c17.1 16.9 34 33.7 51 50.6.8.8.4 1.1-.1 1.6l-12.7 12.7-42.8 42.8a7.94 7.94 0 0 0-2.6 5.4 7.49 7.49 0 0 0 7.3 7.7 7.32 7.32 0 0 0 5.6-2.3c7.1-7 14.1-14.1 21.2-21.1 13.4-13.4 26.8-26.9 40.3-40.3a7.63 7.63 0 0 0 2.3-7.8c-.5-1.9-1.8-3.2-3.2-4.6-11.5-11.6-23.1-23.2-34.6-34.7l-25.5-25.5a7.53 7.53 0 0 0-9.9-1.2 18.1 18.1 0 0 0-3 2.5q-58 58-116 116.1c-1 1-1.4.8-2.2 0q-24.45-24.45-48.9-48.8c-1.2-1.2-1.4-1.8 0-3.2 18.1-18 36.2-36.1 54.3-54.1a7.52 7.52 0 0 0-3.7-13 7.33 7.33 0 0 0-6.7 2.3q-30.15 30-60.1 60c-3.9 3.9-3.9 8.7.1 12.7 20 20 40 39.9 60 59.9 3.9 3.9 8.8 3.8 12.7-.1L213.3 67.1c4.6-4.9 9.4-9.8 14-14.4z"/></g></svg>