<svg version="1" xmlns="http://www.w3.org/2000/svg" width="1333.333" height="1333.333" viewBox="0 0 1000.000000 1000.000000"><path d="M0 500v500h1000V0H0v500zm935 0v435H65V65h870v435z"/><path d="M294 235.6c-32.3 3.7-55.2 9.7-77.5 20.4-39.2 18.8-64.3 48.8-71.6 85.5-2.2 11.2-1.8 38 .9 48.6 5.6 23 15.9 40.8 33.4 58 24.2 23.9 58.9 42.1 119.3 62.9 54.3 18.7 73.4 30.8 79.4 50.4 5.8 18.9 2.4 35.3-9.7 46.8-6.6 6.3-10.8 8.7-20.6 11.7-21.3 6.6-55.5 4-75.6-5.6-9.6-4.6-19.1-14-23.7-23.4-3.7-7.5-6.8-20-7.8-31.2l-.7-7.7H128.7l.7 10.2c4.2 61 39.1 105.3 101.6 129.1 44.5 16.9 102.1 20.3 152.9 9.1 54-12 92.5-45.1 103.6-89 6.9-27 4.4-61.1-6.3-85.3-19.3-43.7-59.7-72.1-141.7-99.6-47.2-15.8-67.3-26.4-78.6-41.2-6.5-8.5-8.7-16.9-7.1-26.6 3.3-19 19.3-33.3 42.7-38.2 10.5-2.2 29.5-2.3 39.5-.1 17.1 3.7 31.8 14.4 38.5 28 3.6 7.3 6.5 18.2 6.5 24.8v3.8h111l-.4-3.8c-.3-2-.8-7.4-1.1-11.9-1.3-18.8-9.7-42.1-21.5-59.9-7-10.4-25.3-28.5-36-35.6-21.3-14.1-43.9-22.8-72.5-27.9-9.8-1.8-16.7-2.2-37.5-2.4-14-.2-27.1-.1-29 .1zM555 471v230h316v-86H666V506h174v-82H666v-97h206v-86H555v230zM130 837.5V870h740v-65H130v32.5z"/></svg>